<?xml version="1.0" encoding="UTF-8"?><svg id="Calque_1" xmlns="http://www.w3.org/2000/svg" viewBox="150 150 500 500"><defs><style>.cls-1{fill:#fff;}.cls-2{fill:none;stroke:#fff;stroke-miterlimit:10;stroke-width:2px;}</style></defs><g><path class="cls-1" d="m151,196.48c.96-.17,1.98-.29,3.07-.37,1.09-.08,2.24-.12,3.46-.12,1.13,0,2.26.04,3.39.12,1.13.08,2.22.21,3.26.37v78.19h36.81c.17.91.28,1.86.33,2.86.04.99.07,1.91.07,2.73,0,1.99-.13,3.85-.39,5.59h-49.99v-89.38Z"/><path class="cls-1" d="m247.85,287.35c-6.79,0-12.66-1.14-17.62-3.42-4.96-2.28-9.07-5.47-12.33-9.57-3.26-4.1-5.7-8.97-7.31-14.61-1.61-5.63-2.41-11.81-2.41-18.52s.8-12.89,2.41-18.52c1.61-5.63,4.05-10.5,7.31-14.61,3.26-4.1,7.37-7.31,12.33-9.63,4.96-2.32,10.83-3.48,17.62-3.48s12.66,1.16,17.62,3.48c4.96,2.32,9.07,5.53,12.33,9.63,3.26,4.1,5.68,8.97,7.24,14.61,1.57,5.64,2.35,11.81,2.35,18.52s-.78,12.89-2.35,18.52c-1.57,5.64-3.98,10.5-7.24,14.61-3.26,4.1-7.37,7.29-12.33,9.57s-10.83,3.42-17.62,3.42Zm0-10.94c4.35,0,8.11-.81,11.29-2.42,3.18-1.62,5.81-3.96,7.9-7.02,2.09-3.06,3.65-6.75,4.7-11.06,1.04-4.31,1.57-9.2,1.57-14.67s-.52-10.26-1.57-14.61c-1.04-4.35-2.61-8.04-4.7-11.06-2.09-3.02-4.72-5.35-7.9-6.96-3.18-1.62-6.94-2.42-11.29-2.42s-8.12.81-11.29,2.42c-3.18,1.62-5.81,3.94-7.9,6.96-2.09,3.03-3.65,6.71-4.7,11.06-1.04,4.35-1.57,9.22-1.57,14.61s.52,10.36,1.57,14.67c1.04,4.31,2.61,8,4.7,11.06,2.09,3.07,4.72,5.41,7.9,7.02,3.18,1.62,6.94,2.42,11.29,2.42Z"/><path class="cls-1" d="m306.84,196.48c.96-.17,1.98-.29,3.07-.37,1.09-.08,2.11-.12,3.07-.12s1.98.04,3.07.12c1.09.08,2.11.21,3.07.37l40.85,67.13v-67.13c1.04-.17,2.13-.29,3.26-.37,1.13-.08,2.26-.12,3.39-.12.96,0,1.96.04,3,.12,1.04.08,2.04.21,3,.37v89.38c-.96.17-1.98.29-3.07.37-1.09.08-2.11.12-3.07.12s-1.98-.04-3.07-.12c-1.09-.08-2.11-.21-3.07-.37l-40.98-66.75v66.75c-.96.17-1.98.29-3.07.37-1.09.08-2.15.12-3.2.12-1.13,0-2.24-.04-3.33-.12-1.09-.08-2.07-.21-2.94-.37v-89.38Z"/><path class="cls-1" d="m395.73,196.48c2.96-.33,6.53-.64,10.7-.93,4.18-.29,8.27-.44,12.27-.44,16.45,0,28.74,3.98,36.87,11.93,8.14,7.96,12.2,19.39,12.2,34.31s-4.16,27.14-12.47,34.68c-8.31,7.54-20.69,11.31-37.13,11.31-4.09,0-8.14-.15-12.14-.44-4-.29-7.44-.64-10.31-1.06v-89.38Zm13.31,78.94c1.22.17,2.72.31,4.5.44,1.78.12,3.68.19,5.68.19,5.13,0,9.81-.56,14.03-1.68,4.22-1.12,7.85-3,10.9-5.66,3.04-2.65,5.39-6.24,7.05-10.75,1.65-4.52,2.48-10.17,2.48-16.97,0-6.22-.83-11.52-2.48-15.91-1.65-4.39-3.98-7.98-6.98-10.75-3-2.78-6.59-4.79-10.77-6.03-4.18-1.24-8.79-1.86-13.84-1.86-1.65,0-3.46.02-5.42.06-1.96.04-3.68.19-5.16.44v68.49Z"/><path class="cls-1" d="m522.99,287.35c-6.79,0-12.66-1.14-17.62-3.42-4.96-2.28-9.07-5.47-12.33-9.57-3.26-4.1-5.7-8.97-7.31-14.61-1.61-5.63-2.41-11.81-2.41-18.52s.8-12.89,2.41-18.52c1.61-5.63,4.05-10.5,7.31-14.61,3.26-4.1,7.37-7.31,12.33-9.63,4.96-2.32,10.83-3.48,17.62-3.48s12.66,1.16,17.62,3.48c4.96,2.32,9.07,5.53,12.33,9.63,3.26,4.1,5.68,8.97,7.24,14.61,1.57,5.64,2.35,11.81,2.35,18.52s-.78,12.89-2.35,18.52c-1.57,5.64-3.98,10.5-7.24,14.61-3.26,4.1-7.37,7.29-12.33,9.57s-10.83,3.42-17.62,3.42Zm0-10.94c4.35,0,8.11-.81,11.29-2.42,3.18-1.62,5.81-3.96,7.9-7.02,2.09-3.06,3.65-6.75,4.7-11.06,1.04-4.31,1.57-9.2,1.57-14.67s-.52-10.26-1.57-14.61c-1.04-4.35-2.61-8.04-4.7-11.06-2.09-3.02-4.72-5.35-7.9-6.96-3.18-1.62-6.94-2.42-11.29-2.42s-8.12.81-11.29,2.42c-3.18,1.62-5.81,3.94-7.9,6.96-2.09,3.03-3.65,6.71-4.7,11.06-1.04,4.35-1.57,9.22-1.57,14.61s.52,10.36,1.57,14.67c1.04,4.31,2.61,8,4.7,11.06,2.09,3.07,4.72,5.41,7.9,7.02,3.18,1.62,6.94,2.42,11.29,2.42Z"/><path class="cls-1" d="m581.99,196.48c.96-.17,1.98-.29,3.07-.37,1.09-.08,2.11-.12,3.07-.12s1.98.04,3.07.12c1.09.08,2.11.21,3.07.37l40.85,67.13v-67.13c1.04-.17,2.13-.29,3.26-.37,1.13-.08,2.26-.12,3.39-.12.96,0,1.96.04,3,.12,1.04.08,2.04.21,3,.37v89.38c-.96.17-1.98.29-3.07.37-1.09.08-2.11.12-3.07.12s-1.98-.04-3.07-.12c-1.09-.08-2.11-.21-3.07-.37l-40.98-66.75v66.75c-.96.17-1.98.29-3.07.37-1.09.08-2.15.12-3.2.12-1.13,0-2.24-.04-3.33-.12-1.09-.08-2.07-.21-2.94-.37v-89.38Z"/></g><g><path class="cls-1" d="m171.25,380.8c-2.82-1.08-5.34-2.26-7.58-3.54-2.24-1.28-4.14-2.82-5.72-4.6-1.58-1.78-2.8-3.92-3.67-6.4-.87-2.49-1.31-5.47-1.31-8.95,0-4.23.73-7.96,2.18-11.19,1.45-3.23,3.5-5.95,6.15-8.14,2.65-2.19,5.84-3.85,9.57-4.97,3.73-1.12,7.91-1.68,12.56-1.68,4.23,0,8.18.37,11.87,1.12,3.69.75,7.56,1.82,11.62,3.23-.5,4.81-1.82,9.53-3.98,14.17-1.24-.5-2.51-.99-3.79-1.49-1.29-.5-2.65-.91-4.1-1.24-1.45-.33-3.09-.6-4.91-.81-1.82-.21-3.9-.31-6.22-.31-1.41,0-2.84.12-4.29.37-1.45.25-2.76.7-3.92,1.37-1.16.66-2.11,1.64-2.86,2.92-.75,1.29-1.12,2.96-1.12,5.03,0,1.66.29,3.05.87,4.16.58,1.12,1.37,2.07,2.36,2.86.99.79,2.11,1.45,3.36,1.99,1.24.54,2.49,1.06,3.73,1.55l7.46,2.86c3.15,1.24,6.01,2.53,8.58,3.85,2.57,1.33,4.74,2.96,6.53,4.91,1.78,1.95,3.17,4.31,4.16,7.09.99,2.78,1.49,6.2,1.49,10.26s-.77,8.08-2.3,11.56c-1.53,3.48-3.75,6.46-6.65,8.95-2.9,2.49-6.49,4.43-10.75,5.84-4.27,1.41-9.18,2.11-14.73,2.11-2.73,0-5.18-.08-7.33-.25-2.16-.17-4.21-.44-6.15-.81-1.95-.37-3.87-.85-5.78-1.43-1.91-.58-3.9-1.28-5.97-2.11.25-2.4.7-4.91,1.37-7.52.66-2.61,1.45-5.24,2.36-7.89,3.48,1.41,6.75,2.47,9.82,3.17,3.07.71,6.34,1.06,9.82,1.06,5.22,0,9.32-.97,12.31-2.92,2.98-1.95,4.48-4.91,4.48-8.89,0-1.99-.35-3.65-1.06-4.97-.71-1.32-1.62-2.44-2.73-3.36-1.12-.91-2.38-1.68-3.79-2.3-1.41-.62-2.86-1.22-4.35-1.8l-7.58-2.86Z"/><path class="cls-1" d="m223.33,332.45c3.81-.33,7.66-.6,11.56-.81,3.89-.21,7.83-.31,11.81-.31s8.35.42,12.62,1.24c4.27.83,8.12,2.38,11.56,4.66,3.44,2.28,6.24,5.45,8.39,9.51,2.15,4.06,3.23,9.32,3.23,15.79s-1.08,11.71-3.23,15.73c-2.16,4.02-4.93,7.19-8.33,9.51-3.4,2.32-7.19,3.9-11.37,4.72-4.19.83-8.31,1.24-12.37,1.24-1.08,0-2.09-.02-3.05-.06-.95-.04-1.85-.1-2.67-.19v28.72c-1.58.25-3.11.41-4.6.5-1.49.08-2.94.12-4.35.12-1.33,0-2.78-.04-4.35-.12-1.58-.08-3.19-.25-4.85-.5v-89.75Zm18.15,45.99c.99.17,1.93.25,2.8.25h3.17c2.07,0,4.1-.27,6.09-.81,1.99-.54,3.75-1.43,5.28-2.67,1.53-1.24,2.75-2.88,3.67-4.91.91-2.03,1.37-4.54,1.37-7.52s-.46-5.66-1.37-7.77c-.91-2.11-2.13-3.81-3.67-5.1-1.53-1.28-3.29-2.19-5.28-2.73-1.99-.54-4.02-.81-6.09-.81-.91,0-1.76.02-2.55.06-.79.04-1.93.15-3.42.31v31.7Z"/><path class="cls-1" d="m295.8,332.82h50.72c.5,2.49.75,5.01.75,7.58,0,2.73-.25,5.35-.75,7.83h-32.57v19.39h25.86c.5,2.65.75,5.22.75,7.71,0,2.65-.25,5.26-.75,7.83h-25.86v23.62h33.44c.5,2.49.75,5.01.75,7.58,0,2.73-.25,5.35-.75,7.83h-51.59v-89.38Z"/><path class="cls-1" d="m382.57,332.82c1.74-.25,3.4-.44,4.97-.56,1.57-.12,3.31-.19,5.22-.19,1.66,0,3.27.06,4.85.19,1.57.12,3.31.31,5.22.56l27.97,89.38c-3.4.5-6.71.75-9.95.75s-6.22-.25-9.2-.75l-4.97-17.9h-29.59l-5.1,17.9c-2.98.5-5.84.75-8.58.75-3.07,0-6.09-.25-9.08-.75l28.22-89.38Zm19.89,56.44l-10.32-37.54-10.81,37.54h21.13Z"/><path class="cls-1" d="m440.87,332.7c1.57-.25,3.11-.41,4.6-.5,1.49-.08,3.02-.12,4.6-.12,1.41,0,2.86.04,4.35.12,1.49.08,3.02.25,4.6.5v89.63c-1.58.25-3.11.41-4.6.5-1.49.08-2.98.12-4.47.12s-2.98-.04-4.48-.12c-1.49-.08-3.03-.25-4.6-.5v-89.63Zm20.76,44.5l24.24-44.38c1.91-.33,3.67-.54,5.28-.62,1.62-.08,3.09-.12,4.41-.12,1.41,0,2.98.08,4.72.25,1.74.17,3.56.33,5.47.5l-24.49,43.14,26.6,46.24c-1.91.17-3.75.33-5.53.5-1.78.17-3.38.25-4.79.25-1.33,0-2.8-.04-4.41-.12-1.62-.08-3.42-.29-5.41-.62l-26.1-45Z"/><path class="cls-1" d="m517.82,332.82h50.72c.5,2.49.75,5.01.75,7.58,0,2.73-.25,5.35-.75,7.83h-32.57v19.39h25.86c.5,2.65.75,5.22.75,7.71,0,2.65-.25,5.26-.75,7.83h-25.86v23.62h33.44c.5,2.49.75,5.01.75,7.58,0,2.73-.25,5.35-.75,7.83h-51.59v-89.38Z"/><path class="cls-1" d="m584.69,332.82c3.65-.41,7.06-.77,10.26-1.06,3.19-.29,6.73-.44,10.63-.44,4.56,0,9.05.42,13.49,1.24,4.43.83,8.43,2.3,12,4.41,3.56,2.11,6.44,4.97,8.64,8.58,2.2,3.6,3.29,8.18,3.29,13.74,0,3.32-.42,6.24-1.24,8.76-.83,2.53-1.89,4.74-3.17,6.65-1.29,1.91-2.67,3.54-4.16,4.91-1.49,1.37-2.9,2.47-4.23,3.29l-2.11,1.37,21.75,37.79c-1.66.16-3.4.33-5.22.5-1.82.17-3.69.25-5.59.25-3.15,0-6.26-.25-9.32-.75l-23.37-41.52,2.98-1.49c1.16-.58,2.57-1.32,4.23-2.24,1.66-.91,3.25-2.05,4.79-3.42,1.53-1.37,2.84-3.02,3.92-4.97,1.08-1.95,1.62-4.25,1.62-6.9,0-5.22-1.49-9.05-4.47-11.5-2.98-2.44-6.84-3.67-11.56-3.67-1.82,0-3.48.12-4.97.37v75.46c-1.49.17-2.98.31-4.47.44s-2.94.19-4.35.19-2.9-.04-4.48-.12c-1.58-.08-3.19-.25-4.85-.5v-89.38Z"/></g><g><path class="cls-1" d="m151.19,469.16c.95-.08,2.31-.21,4.07-.37,1.76-.17,3.65-.33,5.65-.5,2-.17,4.02-.29,6.08-.37,2.05-.08,3.88-.12,5.5-.12,11.24,0,19.87,1.89,25.87,5.66,6,3.77,9.01,9.63,9.01,17.59,0,2.57-.45,4.91-1.36,7.02-.91,2.11-2.12,4.02-3.65,5.72-1.53,1.7-3.31,3.13-5.36,4.29-2.05,1.16-4.17,2.03-6.36,2.61,2.95.33,5.81,1.02,8.58,2.05,2.76,1.04,5.22,2.49,7.36,4.35,2.14,1.86,3.86,4.19,5.15,6.96,1.29,2.78,1.93,6.11,1.93,10.01,0,4.47-1.03,8.33-3.07,11.56-2.05,3.23-4.91,5.93-8.58,8.08-3.67,2.16-8.01,3.75-13.01,4.79s-10.46,1.55-16.37,1.55c-1.53,0-3.24-.04-5.15-.12-1.91-.08-3.84-.19-5.79-.31-1.95-.12-3.86-.29-5.72-.5-1.86-.21-3.46-.39-4.79-.56v-89.38Zm23.44,38.04c7.72,0,13.37-1.49,16.94-4.48,3.57-2.98,5.36-6.88,5.36-11.69,0-4.47-1.88-8.22-5.65-11.25-3.77-3.02-9.7-4.54-17.8-4.54-2.48,0-4.84.08-7.08.25-2.24.17-4.03.33-5.36.5v31.2h13.58Zm-13.58,44.38c1.33.17,3.12.31,5.36.44,2.24.12,4.6.19,7.08.19,3.72,0,7.36-.29,10.94-.87,3.57-.58,6.74-1.57,9.51-2.98,2.76-1.41,4.98-3.27,6.65-5.59,1.67-2.32,2.5-5.22,2.5-8.7s-.71-6.4-2.14-8.76c-1.43-2.36-3.38-4.29-5.86-5.78-2.48-1.49-5.39-2.57-8.72-3.23-3.34-.66-6.91-.99-10.72-.99h-14.58v36.3Z"/><path class="cls-1" d="m233.96,469.16c.67-.08,1.48-.14,2.43-.19.95-.04,1.81-.06,2.57-.06.86,0,1.72.02,2.57.06.86.04,1.62.11,2.29.19v53.95c0,5.22.5,9.63,1.5,13.24,1,3.6,2.52,6.57,4.57,8.89,2.05,2.32,4.65,4,7.79,5.03,3.14,1.04,6.91,1.55,11.29,1.55,8.67,0,15.03-2.2,19.08-6.59,4.05-4.39,6.08-11.77,6.08-22.13v-53.95c.67-.08,1.43-.14,2.29-.19.86-.04,1.72-.06,2.57-.06.76,0,1.62.02,2.57.06.95.04,1.76.11,2.43.19v55.07c0,11.93-2.81,20.88-8.43,26.85-5.62,5.97-14.49,8.95-26.59,8.95s-20.97-2.98-26.59-8.95c-5.62-5.97-8.43-14.92-8.43-26.85v-55.07Z"/><path class="cls-1" d="m331.74,468.79c2.09-.17,3.93-.31,5.5-.44,1.57-.12,3.1-.25,4.57-.37,1.48-.12,3.02-.21,4.65-.25,1.62-.04,3.53-.06,5.72-.06,4.57,0,9.08.42,13.51,1.24,4.43.83,8.41,2.26,11.94,4.29,3.53,2.03,6.36,4.77,8.51,8.2,2.14,3.44,3.22,7.77,3.22,12.99,0,3.23-.67,6.17-2,8.83-1.34,2.65-3.07,5.03-5.22,7.15-2.14,2.11-4.62,3.94-7.43,5.47-2.81,1.53-5.7,2.8-8.65,3.79l-1.14.37,32.74,38.54c-.95.17-1.91.25-2.86.25h-5.65c-.91,0-1.84-.08-2.79-.25l-36.02-41.4v-.5l3.14-.75c3.24-.75,6.38-1.72,9.44-2.92,3.05-1.2,5.74-2.65,8.08-4.35,2.33-1.7,4.22-3.71,5.65-6.03,1.43-2.32,2.14-5.05,2.14-8.2,0-6.46-2.29-11.31-6.86-14.54-4.57-3.23-10.77-4.85-18.58-4.85-2,0-3.86.04-5.58.12-1.72.08-3.77.25-6.15.5v82.91c-.67.08-1.48.14-2.43.19-.95.04-1.81.06-2.57.06-.86,0-1.72-.02-2.57-.06-.86-.04-1.62-.1-2.29-.19v-89.75Z"/><path class="cls-1" d="m415.66,469.16h55.04c.09.5.17,1.1.21,1.8.05.7.07,1.39.07,2.05,0,.58-.02,1.26-.07,2.05-.05.79-.12,1.43-.21,1.93h-45.17v30.21h36.31c.09.5.17,1.1.21,1.8.05.71.07,1.39.07,2.05,0,.58-.02,1.26-.07,2.05-.05.79-.12,1.43-.21,1.93h-36.31v35.68h46.46c.09.5.17,1.1.21,1.8.05.71.07,1.39.07,2.05,0,.58-.02,1.26-.07,2.05-.05.79-.12,1.43-.21,1.93h-56.32v-89.38Z"/><path class="cls-1" d="m515.58,469.16c.67-.08,1.57-.14,2.72-.19,1.14-.04,2.19-.06,3.14-.06,1.05,0,2.12.02,3.22.06,1.09.04,1.98.11,2.64.19l34.31,89.38c-.57.08-1.38.14-2.43.19-1.05.04-2.05.06-3,.06-.86,0-1.76-.02-2.72-.06-.95-.04-1.76-.1-2.43-.19l-8.58-22.75h-42.32l-8.15,22.75c-.76.08-1.64.14-2.64.19-1,.04-1.93.06-2.79.06-.95,0-1.93-.02-2.93-.06-1-.04-1.79-.1-2.36-.19l34.31-89.38Zm24.02,58.67l-18.44-49.72-18.16,49.72h36.6Z"/><path class="cls-1" d="m577.76,469.16c.67-.08,1.48-.14,2.43-.19.95-.04,1.81-.06,2.57-.06.86,0,1.72.02,2.57.06.86.04,1.62.11,2.29.19v53.95c0,5.22.5,9.63,1.5,13.24,1,3.6,2.52,6.57,4.57,8.89,2.05,2.32,4.65,4,7.79,5.03,3.14,1.04,6.91,1.55,11.29,1.55,8.67,0,15.03-2.2,19.08-6.59,4.05-4.39,6.08-11.77,6.08-22.13v-53.95c.67-.08,1.43-.14,2.29-.19.86-.04,1.72-.06,2.57-.06.76,0,1.62.02,2.57.06.95.04,1.76.11,2.43.19v55.07c0,11.93-2.81,20.88-8.43,26.85-5.62,5.97-14.49,8.95-26.59,8.95s-20.97-2.98-26.59-8.95c-5.62-5.97-8.43-14.92-8.43-26.85v-55.07Z"/></g><line class="cls-2" x1="150" y1="604.02" x2="650" y2="604.02"/></svg>